<?xml version="1.0" encoding="UTF-8"?>
<!DOCTYPE svg PUBLIC "-//W3C//DTD SVG 1.1//EN" "http://www.w3.org/Graphics/SVG/1.1/DTD/svg11.dtd">
<!-- Creator: CorelDRAW (Versão de avaliação) -->
<svg xmlns="http://www.w3.org/2000/svg" xml:space="preserve" width="176.389mm" height="176.389mm" version="1.1" style="shape-rendering:geometricPrecision; text-rendering:geometricPrecision; image-rendering:optimizeQuality; fill-rule:evenodd; clip-rule:evenodd"
viewBox="0 0 17638.88 17638.88"
 xmlns:xlink="http://www.w3.org/1999/xlink"
 xmlns:xodm="http://www.corel.com/coreldraw/odm/2003">
 <defs>
  <style type="text/css">
   <![CDATA[
    .fil2 {fill:#72C6EB;fill-rule:nonzero}
    .fil1 {fill:#E69C24;fill-rule:nonzero}
    .fil3 {fill:#F13421;fill-rule:nonzero}
    .fil0 {fill:white;fill-rule:nonzero}
   ]]>
  </style>
 </defs>
 <g id="BACKGROUND">
  <metadata id="CorelCorpID_0Corel-Layer"/>
  <g id="_296656336">
   <polygon class="fil0" points="17638.88,17638.88 -0,17638.88 -0,0 17638.88,0 "/>
  </g>
 </g>
 <g id="OBJECTS">
  <metadata id="CorelCorpID_1Corel-Layer"/>
  <g id="_519063304">
   <g>
    <path class="fil1" d="M9917.9 4316.58c-1032.14,-3327.51 -3050.19,-3943.71 -3050.19,-3943.71 492.95,508.37 462.15,2218.33 261.88,3204.25 -200.26,985.93 -908.88,2048.89 -1632.92,1648.36 -724.04,-400.53 46.21,-1432.69 46.21,-1432.69 -1817.8,1124.58 -908.9,2356.98 -677.83,3450.74 231.07,1093.76 -410.56,1418.98 -1401.86,2572.66 -3103.01,3611.18 407.22,7475.84 3324.47,7185.03 -867.81,-626.65 -1433.14,-1646.23 -1433.14,-2798.46 0,-953.06 386.43,-1815.85 1011.13,-2440.28 433.36,-839.61 944.97,-2174.48 1010.59,-3880.07 0,0 249.91,1615.39 -110.72,3232.52 196.16,-98 402.91,-177.65 618.16,-237.17 552.41,-928.33 1406.31,-2794.28 1022.14,-4995.74 0,0 972.14,2376.81 -187.74,4872.59 28.93,-0.71 57.69,-2.19 86.79,-2.19l0.04 0c142.41,0 282.47,9.63 420.35,26.41 889.54,-1395.28 1555.38,-3680.86 692.64,-6462.25z"/>
   </g>
   <path class="fil2" d="M10774.7 9587.83l-377.13 -344.23c-158.56,523.83 -381.86,1072.41 -692.36,1628.24 161.15,43.45 317.28,98.92 468.18,164.19 165.81,-147.35 372.55,-249.37 601.31,-286.08l0 -1162.12zm3579.86 -1543.23l0 0c-1602.13,-2279.96 -3774.25,-2772.91 -3774.25,-2772.91 0,0 426.19,1551.28 -70.44,3562.83l264.83 241.72 0 -912.5c0,-104.34 84.59,-188.92 188.93,-188.92 104.34,0 188.93,84.58 188.93,188.92l0 912.5 591.73 -540.1c77.08,-70.39 196.55,-64.91 266.91,12.15 70.34,77.07 64.88,196.57 -12.15,266.91l-846.49 772.63 0 1162.12c294.32,47.24 553.15,201.58 733.76,423.1l1005.95 -580.78 245.87 -1119.42c22.42,-101.86 123.2,-166.37 225.09,-143.99 101.9,22.39 166.37,123.15 143.97,225.09l-171.87 782.51 790.23 -456.22c90.32,-52.18 205.87,-21.27 258.06,69.13 52.18,90.36 21.22,205.89 -69.13,258.07l-790.26 456.26 763.65 242.41c99.44,31.58 154.47,137.79 122.91,237.23 -25.54,80.45 -99.92,131.81 -180.01,131.81 -18.96,0 -38.22,-2.86 -57.21,-8.88l-1092.39 -346.78 -1006.34 581.02c50.4,131.75 79.21,274.13 79.21,423.39 0,149.28 -28.81,291.63 -79.19,423.41l1006.32 581 1092.39 -346.74c99.39,-31.51 205.68,23.47 237.22,122.91 31.56,99.46 -23.47,205.67 -122.91,237.24l-763.64 242.38 790.25 456.26c90.35,52.18 121.31,167.71 69.13,258.08 -34.98,60.59 -98.49,94.49 -163.78,94.49 -32.06,0 -64.52,-8.15 -94.28,-25.35l-790.23 -456.24 171.87 782.51c22.4,101.94 -42.07,202.7 -143.97,225.09 -13.69,2.97 -27.32,4.42 -40.74,4.42 -86.79,0 -164.97,-60.18 -184.35,-148.41l-245.87 -1119.42 -988.28 -570.59c224.84,458.01 351.27,973.09 351.27,1517.82 0,1113.8 -528.28,2103.69 -1347.35,2734.55 5899.61,-585.38 5048.42,-6613.26 3446.65,-8892.71zm-2671.45 4255.63l0 0c59.17,-112.63 93.06,-240.51 93.06,-376.33 0,-448.03 -364.47,-812.56 -812.54,-812.56 -151.66,0 -293.24,42.53 -414.86,115.16 455.05,267.09 843.61,635.03 1134.34,1073.73z"/>
   <path class="fil3" d="M8804.91 11141.02l-0.04 0c-1690.95,0 -3061.74,1370.78 -3061.74,3061.74 0,1690.97 1370.79,3061.77 3061.74,3061.77l0.04 0c1690.93,0 3061.74,-1370.8 3061.74,-3061.77 0,-1690.96 -1370.81,-3061.74 -3061.74,-3061.74zm990.41 5098.99l0 0c-432.41,143.12 -868.45,195.63 -1140.66,-104.12 0,0 -106.28,-124.9 38.02,-183.1 144.29,-58.18 327.49,-276.82 292.95,-570.45 -11.62,-98.73 -40.38,-195.24 -73.35,-280.22 369.42,-14.38 673.78,-281.48 743.77,-633.87 228.46,166.15 561.02,442.59 721,742.74 256.85,481.94 -149.31,885.88 -581.73,1029.02zm795.57 -1294.1l0 0c0,0 -151.64,62.49 -162.37,-92.73 -10.77,-155.22 -162.07,-397.02 -452.02,-454.9 -104.51,-20.87 -212.6,-22.18 -308.58,-15.55 1.98,-22.86 3.49,-45.85 3.49,-69.22 0,-324.66 -195.97,-603.3 -475.93,-724.86 205.37,130.05 342.12,358.67 342.12,619.74 0,405.22 -328.52,733.74 -733.74,733.74 -339.66,0 -624.59,-231.11 -708.19,-544.41 39.92,376.54 344.3,673.66 723.87,703.05 -87.55,268.63 -247.5,669.23 -483.07,913.65 -378.97,393.2 -888.66,131.74 -1158.42,-235.28 -269.73,-367.01 -454.42,-765.5 -253.45,-1117.01 0,0 85.93,-139.7 185.88,-20.43 99.93,119.25 364.46,225.93 633.06,102.34 138.51,-63.75 260.1,-164.19 345.69,-246.71 -262.67,7.74 -790.82,-1.86 -1147.43,-175.36 -491.08,-238.92 -399.91,-804.46 -134.23,-1174.41 265.7,-369.98 587.62,-668.76 984.03,-586.26 0,0 159.42,38.58 76.88,170.46 -82.53,131.9 -102.25,416.46 98.29,633.73 103.41,112.04 236.53,196.62 341.45,252.52 -88.52,-247.39 -242.6,-752.67 -187.79,-1145.45 75.46,-540.88 641.5,-628.92 1075.44,-490.56 433.96,138.36 817.6,352.2 861.62,754.7 0,0 12.59,163.53 -138.36,125.79 -150.94,-37.74 -427.66,31.44 -572.31,289.31 -74.6,132.97 -113.93,285.71 -134.67,402.77 207.94,-160.65 640.88,-463.31 1031.37,-532.57 537.73,-95.35 796.39,415.76 798.9,871.24 2.51,455.47 -82.32,886.41 -451.53,1052.67z"/>
  </g>
 </g>
</svg>
